<svg xmlns="http://www.w3.org/2000/svg" viewBox="0 0 512 512"><rect width="512" height="512" rx="120" fill="#fff4f1"/><path d="M116 217c-12-57 1-99 43-126l56 41c28-9 55-9 83 0l56-41c42 27 55 69 42 126 25 93-18 190-140 190S91 310 116 217Z" fill="#fff" stroke="#777173" stroke-width="24" stroke-linecap="round" stroke-linejoin="round"/><circle cx="196" cy="247" r="20" fill="#5f5b5c"/><circle cx="316" cy="247" r="20" fill="#5f5b5c"/><ellipse cx="165" cy="283" rx="34" ry="18" fill="#ffd9d9"/><ellipse cx="347" cy="283" rx="34" ry="18" fill="#ffd9d9"/><path d="M238 278q18 25 36 0" fill="none" stroke="#ff9297" stroke-width="14" stroke-linecap="round"/><path d="M161 272h-50m50 22-45 10m235-32h50m-50 22 45 10" fill="none" stroke="#777173" stroke-width="12" stroke-linecap="round"/></svg>
